<?xml version="1.0" encoding="iso-8859-1"?>
<!-- Generator: Adobe Illustrator 23.1.1, SVG Export Plug-In . SVG Version: 6.00 Build 0)  -->
<svg version="1.1" id="Line" xmlns="http://www.w3.org/2000/svg" xmlns:xlink="http://www.w3.org/1999/xlink" x="0px" y="0px"
	 viewBox="0 0 128 128" style="enable-background:new 0 0 128 128;" xml:space="preserve">
<path d="M116.707,30.293L111.414,25c-0.645-0.645-1.502-1-2.414-1H98.816c-0.414-1.161-1.514-2-2.816-2h-3.449l0.422-1.768
	c0.009-0.039-0.004-0.078,0.001-0.118c0.011-0.092,0.017-0.18,0.002-0.268c-0.008-0.053-0.025-0.1-0.042-0.151
	c-0.028-0.085-0.063-0.163-0.113-0.237c-0.016-0.024-0.019-0.055-0.037-0.078c-0.016-0.021-0.042-0.029-0.06-0.048
	c-0.059-0.064-0.127-0.115-0.202-0.163c-0.048-0.03-0.092-0.061-0.144-0.083c-0.023-0.009-0.038-0.028-0.062-0.036L60.115,8.318
	l0.853-5.122c0.099-0.495-0.036-0.999-0.379-1.417C60.195,1.298,59.576,1,58.974,1h-5.949c-0.603,0-1.222,0.298-1.615,0.779
	c-0.344,0.419-0.478,0.923-0.385,1.386l0.859,5.153L19.837,19H9.999l-0.177-0.001c-0.856-0.013-2.289-0.023-2.719,1.067
	c-0.398,1.005,0.443,1.955,1.22,2.669c1.19,1.096,2.465,2.063,3.889,2.953c0.651,1.414,3.734,7.531,12.147,16.902l4.672,19.595
	c0.773,4.091,3.33,6.621,5.97,7.48v4.427c-3.212,0.549-5.176,3.686-5.962,6.635l-11,39C18.012,119.817,18,119.908,18,120
	c0,4.449,2.187,7,6,7h64c3.813,0,6-2.551,6-7c0-0.092-0.013-0.183-0.038-0.271L82.964,80.736c-0.791-2.961-2.756-6.094-5.964-6.643
	v-4.427c2.64-0.858,5.195-3.38,5.96-7.434L89.451,35H96c1.302,0,2.402-0.839,2.816-2h6.77l2.283,2.283l-6.824,22.423
	C100.648,58.992,99.331,60,98.046,60h-3.044c-1.479-0.002-2.265-0.677-3.294-1.707C91.52,58.105,91.265,58,91,58
	c-1.491,0-3,1.03-3,3v5.005c0,2.206,1.794,4,4.001,4L98,70c5.913,0,9.711-3.074,11.961-9.692l7.006-22.054
	c0.099-0.375,0.215-0.758,0.332-1.145C117.936,35.007,118.728,32.392,116.707,30.293z M47.885,68L42.13,21h27.74l-5.755,47H47.885z
	 M58.61,10l9.818,9H43.571l9.818-9H58.61z M40.61,19H26.162l22.705-7.568L40.61,19z M71.389,19l-8.256-7.568L85.837,19H71.389z
	 M53.025,3l5.941,0.046L58.141,8h-4.282L53.025,3L53.025,3z M13.923,24.616c-0.082-0.195-0.223-0.36-0.403-0.47
	c-1.419-0.865-2.676-1.808-3.843-2.882C9.57,21.166,9.479,21.078,9.403,21c0.159-0.003,0.308-0.001,0.399-0.001L19.21,21
	l4.146,17.388C16.173,29.858,13.947,24.673,13.923,24.616z M30.985,61.768L21.266,21h18.848l5.755,47H37
	C34.655,68,31.754,65.832,30.985,61.768z M20,120.136l10.966-38.878C31.644,78.716,33.321,76,36,76h9.853l-6.725,49H24
	C21.344,125,20.035,123.409,20,120.136z M64.127,76l6.725,49H41.146l6.725-49H64.127z M81.033,81.258
	c0.001,0.004,0.002,0.009,0.004,0.014l10.962,38.864c-0.035,3.273-1.344,4.864-4,4.864H72.872l-6.725-49H76
	C78.677,76,80.355,78.716,81.033,81.258z M75,74H37v-4h38V74z M81.004,61.814C80.245,65.832,77.344,68,75,68h-8.87l5.755-47h18.848
	L81.004,61.814z M96,33h-6.072l2.146-9H96c0.551,0,1,0.449,1,1v7C97,32.551,96.551,33,96,33z M115.385,36.529
	c-0.124,0.41-0.247,0.817-0.338,1.168l-6.986,21.986C106.079,65.513,103.07,68,97.999,68L92,68.005c-1.103,0-2-0.897-2-2V61
	c0-0.623,0.333-0.862,0.639-0.951C91.575,60.958,92.858,61.997,95,62h3.046c2.149,0,4.259-1.593,4.911-3.709l7-23
	c0.107-0.353,0.012-0.737-0.25-0.998l-3-3C106.52,31.105,106.265,31,106,31h-7v-5h10c0.372,0,0.737,0.151,1,0.414l5.28,5.279
	C116.394,32.851,116.062,34.292,115.385,36.529z"/>
</svg>
