<?xml version="1.0" encoding="UTF-8"?>
<svg id="Layer_1" xmlns="http://www.w3.org/2000/svg" version="1.1" viewBox="0 0 647.22 1381.7">
  <!-- Generator: Adobe Illustrator 29.8.3, SVG Export Plug-In . SVG Version: 2.1.1 Build 3)  -->
  <defs>
    <style>
      .st0 {
        fill: #fff;
      }
    </style>
  </defs>
  <g>
    <path class="st0" d="M601.48,1005.82c-.34.3-.7.6-1.08.92-31.65,26.67-69.02,46.05-108.08,56.06-1.1.26-2.19.54-3.3.81-1.97.49-3.81.95-5.57,1.3l-4.68,1-4.58.84c-6.04,1.13-12.28,1.92-18.13,2.61-3.72.38-7.49.69-11.28.94-3.46.23-6.95.38-10.46.48-.79,1.7-1.62,3.44-2.49,5.24-3.96,8.28-10.92,22.66-22.88,47.2h-.04c-.4.81-.81,1.64-1.21,2.46l-2.37,4.81c-.33.69-.69,1.39-1.01,2.08-1.91,3.86-3.79,7.69-5.67,11.53l-.34.72c3.51-.16,7-.37,10.46-.63,4.68-.34,9.3-.78,13.85-1.3.19-.03.39-.04.59-.07,15.79-1.84,31.07-4.64,45.38-8.32,14.93-3.86,29.54-8.79,43.45-14.65,22.5-9.53,43.95-21.61,63.7-35.92,19.41-14.04,37.31-30.28,53.19-48.28l.94-1.07c7.17-8.19,6.84-19.76-.8-27.51-7.65-7.78-19.25-8.3-27.58-1.23v-.02ZM563.48,1066.97c-18.5,13.38-38.55,24.69-59.6,33.6-12.95,5.47-26.58,10.06-40.53,13.67-9.49,2.44-19.45,4.47-29.74,6.06,5.88-12.07,10.61-21.83,14.18-29.24,3.53-.23,7.03-.54,10.5-.9l.13-.02c6.24-.74,12.93-1.58,19.57-2.83l4.68-.86,4.88-1.04c2.25-.44,4.43-.99,6.54-1.51,1.04-.26,2.07-.52,3.11-.76l.2-.05c39.78-10.17,77.9-29.35,110.69-55.61-13.55,14.6-28.52,27.86-44.62,39.5h.01Z"/>
    <path class="st0" d="M625.19,510.28c-11.33-11.51-22.95-21.91-34.53-30.9-1.52-1.24-2.99-2.32-4.42-3.35-.54-.4-1.1-.79-1.63-1.2l-5.94-4.32-6.31-4.22-.11-.08c-.61-.39-1.22-.79-1.82-1.2-1.44-.95-2.91-1.93-4.54-2.89l-6.11-3.7-3.08-1.82-9.68-5.29c-1.64-.89-3.2-1.66-4.74-2.41-.66-.33-1.31-.64-1.97-.97l-1.76-.87c-1.63-.79-3.26-1.59-4.91-2.36l-6.68-2.94c-3.73-1.69-7.31-3.08-10.76-4.42-.84-.33-1.68-.65-2.53-.99-2.11-.84-4.17-1.56-6.16-2.25l-7.21-2.51-.18-.06c-1.6-.53-3.2-1.02-4.79-1.51l-2-.61c-.69-.21-1.36-.43-2.05-.64-1.51-.48-3.07-.96-4.73-1.4-8.66-2.45-17.49-4.58-26.45-6.37-2.94-.59-5.91-1.15-8.87-1.66-6.33-1.11-12.71-2.05-19.11-2.82-9.24-1.1-18.71-1.84-28.34-2.22h-.08c-4.3-.28-8.57-.43-12.85-.43-2.47,0-4.93.05-7.39.14v.04c-1.96.02-3.93.06-5.89.12l-3.31.08-10.15.54-.18.02c-4.99.36-9.37.73-13.37,1.12l-7.77.88c-.81.08-1.63.18-2.45.29l-18.43,2.71c-.76.12-1.53.26-2.29.4l-13.73,2.53c-1.94.35-3.96.73-6.05,1.21l-.42.09-3.3.74c-2.57.57-5.16,1.14-7.8,1.74-4.37,1-8.8,2.07-13.23,3.31l-9.08,2.42-8.26,2.53-7.12,2.17c-1.64.48-3.15,1.01-4.62,1.53-.59.21-1.19.42-1.77.62l-12.09,4.25-6.25,2.46c-8.64,3.32-17.38,7.08-26.16,11.27-7.19,3.42-14.41,7.13-21.59,11.09-7.93,4.25-15.52,9.03-22.88,13.63l-11.05,7.5c-1.55,1.01-2.93,2.05-4.28,3.05-.46.35-.93.7-1.39,1.04l-5.32,3.97-.08.08c-14.47,11.06-28.04,23.19-40.32,36.03-24.83,25.89-45.23,55.84-60.66,89.02-14.84,31.94-24.65,65.98-29.15,101.16-4.33,33.57-4.01,67.99.96,102.29,2.41,16.56,5.92,33.16,10.46,49.36,4.53,16.03,10.15,31.91,16.67,47.22,13.21,30.94,30.2,59.72,50.54,85.55,20.79,26.38,44.92,49.32,71.75,68.19,13.44,9.46,27.7,17.95,42.45,25.26,14.09,6.91,28.76,13.14,43.6,18.5,9.78,3.55,19.72,6.73,29.8,9.55,6.76,1.9,13.58,3.63,20.45,5.19h.05l.32-.96s.02-.04.02-.07c5.67-14.9,13.62-42.44,17.91-63.24.09-.44.18-.88.27-1.3.79-3.93,1.45-7.59,1.92-10.87.07-.43.13-.85.18-1.26.24-1.58.47-3.14.68-4.7.13-.95.25-1.92.36-2.89-.64-.23-1.29-.47-1.93-.71-11.34-4.28-22.86-9.35-34.16-15.03-.57-.28-1.12-.56-1.67-.84-.81-.41-1.63-.81-2.45-1.25l-4.22-2.25-.13-.07c-1.67-.86-3.35-1.81-5.11-2.82-.99-.55-1.97-1.1-2.94-1.65-1.58-.89-3.14-1.82-4.79-2.81-1.04-.62-2.08-1.24-3.13-1.85l-3.92-2.44-2.09-1.3c-.39-.24-.96-.59-1.37-.88l-.35-.25c-9.08-5.86-18.18-12.83-27.07-20.73-16.83-15.02-31.72-32.68-44.26-52.49-12.09-19.05-21.91-40.25-29.16-63.01-7.09-22.39-11.34-45.28-12.65-68.02-1.3-23.05.33-45.66,4.88-67.22.42-1.97.85-3.92,1.31-5.86,4.71-19.76,11.75-38.08,20.98-54.57,8.3-14.93,18.46-28.7,30.31-41.05.28-.31.57-.61.87-.91,2.36-2.45,4.8-4.83,7.31-7.17,3.4-3.2,7.03-6.32,10.93-9.41,3.08-2.45,6.32-4.88,9.77-7.31,1.32-.94,2.69-1.88,4.07-2.83l3.34-2.28c.6-.38,1.22-.75,1.83-1.12.49-.31,1-.61,1.46-.9l5.18-3.2,8.86-4.95,9.18-4.6,7.85-3.55h0l1.6-.73,7.87-3.16c.38-.15.76-.31,1.14-.47.88-.36,1.62-.67,2.3-.89l8.57-3.04.27-.09c.69-.27,1.56-.54,2.48-.82l9.5-2.96c.77-.23,1.54-.43,2.32-.64.59-.15,1.18-.31,1.71-.45l8.51-2.28,8.62-1.97c.6-.13,1.19-.27,1.76-.41.8-.19,1.57-.37,2.22-.49l4.58-.86c1.21-.23,2.41-.46,3.61-.69,1.81-.35,3.5-.69,5.19-.96l9.08-1.39c.6-.09,1.2-.18,1.8-.28.85-.13,1.66-.27,2.36-.34l1.28-.15,12.61-1.49,4.17-.36c1.2-.12,2.48-.23,3.71-.28l4.42-.26h.09c.64-.05,1.4-.07,2.17-.08.39,0,.78-.03,1.19-.03.17,0,.33,0,.49-.02.56-.02,1.13-.03,1.68-.06.74-.03,1.51-.06,2.24-.06h5.86c8.16.63,14.86,1.06,19.87,1.09,3.45.34,6.91.78,10.38,1.29,1.71.26,3.41.53,5.09.82,1.66.28,3.3.59,4.93.91,5.63,1.11,11.04,2.42,16.17,3.91,1.27.36,2.52.74,3.76,1.14.07.02.15.04.22.07.12.03.21.07.33.1.53.18,1.08.35,1.61.52,1.84.59,3.59,1.15,5.18,1.76l3.81,1.37,3.5,1.41.25.1c1.42.53,2.78,1.15,4.21,1.79.78.36,1.56.7,2.35,1.05l.17.08c.67.28,1.46.68,2.29,1.1l3.52,1.75c15.61,8.99,31.17,20.39,46.28,33.88,12.03,10.74,26.65,17.1,41.75,18.99,2.12.36,4.24.54,6.36.54,17.57.74,35.39-4.49,50.14-15.83l1.36-1.05h.02c17.51-13.45,28.42-33.8,29.94-55.82,1.53-21.93-6.43-43.49-21.82-59.13h-.02ZM202.16,1010.22c9.63,8.57,19.53,16.17,29.47,22.58.82.57,1.64,1.08,2.28,1.47l6.01,3.76.28.17c1.03.6,2.06,1.21,3.09,1.83,1.7,1.01,3.46,2.06,5.27,3.08l.08.05c.95.51,1.87,1.04,2.79,1.56,1.86,1.05,3.77,2.13,5.79,3.17l4.15,2.21c.99.53,1.97,1.02,2.97,1.52.5.24,1,.49,1.55.77,7.41,3.73,14.9,7.2,22.37,10.37-1.39,7.19-3.44,15.89-5.75,24.74-34.39-20.52-61.02-48.14-81.64-78.47.44.42.86.79,1.3,1.19h-.01ZM132.69,912.36v.02c18.83,60.74,47.27,110.99,84.53,149.34,18,18.54,37.85,34,59.45,46.35-.18.58-.35,1.15-.52,1.71-10.01-2.76-19.88-5.91-29.58-9.43-14.13-5.11-28.1-11.03-41.48-17.59-13.27-6.58-26.16-14.21-38.33-22.69h0c-4.3-5.84-24.36-34.74-38.13-83.34-8.27-29.23-15.2-69.31-13.23-118.66,2.01,9.19,4.45,18.31,7.34,27.38,2.93,9.22,6.26,18.2,9.96,26.92h-.01ZM138.9,673.26c-10.04,17.96-17.71,37.85-22.88,59.22,0,.05-.03.11-.03.16,0,.02,0,.04-.02.06-14.7,49.02-22.08,97.34-21.94,143.62.11,37.34,5.09,73.44,14.82,107.3,4.28,14.96,9.11,28.13,13.93,39.48q3.21,7.57-.02-.02c-8.68-8.77-16.94-18.1-24.69-27.94-19.19-24.38-35.24-51.57-47.72-80.82-1.27-2.97-2.51-5.96-3.7-8.97-30.87-100.2,30.69-185.51,96.99-240.21-1.66,2.67-3.23,5.38-4.76,8.12h.02ZM276.26,564.96c-1.14.35-2.43.74-3.77,1.25l-8.05,2.87c-1.35.45-2.56.94-3.61,1.37-.32.13-.64.27-.99.41l-8.08,3.25-6.42,2.89h0l-3.8,1.71-10,5.01-7.78,4.34-1.86,1.02-5.85,3.61c-.43.27-.86.53-1.3.79-.82.5-1.64,1-2.45,1.52l-3.04,2.09c-1.94.96-3.88,1.96-5.81,2.97-6.65,3.47-13.25,7.18-19.8,11.11-2.07,1.25-4.13,2.51-6.19,3.81-43,26.81-82.75,62.61-110.37,100.01-21.67,29.33-36.41,59.83-43.84,90.64-.15.66-.3,1.31-.45,1.97-2.8-27.3-2.48-54.57.98-81.27,1.97-15.41,5.03-30.58,9.13-45.43,30.45-54.14,78.91-84.06,131.15-100.07,5.68-1.74,11.39-3.32,17.15-4.74,1.15-.29,2.32-.57,3.47-.84,5.76-1.36,11.53-2.58,17.32-3.66,2.58-.48,5.18-.94,7.75-1.36,15.68-2.61,31.33-4.27,46.6-5.24h.02c7.78-.49,15.46-.81,22.99-.99l-3.09.97h0ZM458.48,560.49c-2.14-.81-4.22-1.48-6.21-2.12-.13-.03-.23-.08-.36-.11-.49-.16-.99-.32-1.53-.49-.42-.13-.84-.27-1.27-.39-.92-.28-1.85-.56-2.77-.84-.93-.28-1.86-.54-2.81-.8-1.92-.54-3.88-1.05-5.87-1.54-.85-.21-1.72-.42-2.59-.62-1.14-.27-2.28-.52-3.43-.77-1.04-.22-2.08-.43-3.13-.64-.31-.07-.64-.13-.95-.19-3.5-.69-7.07-1.3-10.7-1.84-9.7-1.44-19.44-2.3-28.99-2.53-1.2-.03-2.37-.06-3.55-.07-2.42-.19-4.97-.39-7.65-.61-.46-.03-.93-.08-1.39-.12-2.89-.23-5.87-.46-9-.7-.84-.07-1.7-.13-2.58-.19h0c-16.15-1.23-35.32-2.48-56.39-2.86-9.47-.18-19.31-.17-29.43.09h0c-17.21.43-35.24,1.61-53.55,3.91-7.24.9-14.51,1.99-21.79,3.27-1.93.33-3.85.69-5.75,1.05-.21.04-.42.08-.63.12-4.99.96-9.9,2-14.73,3.13-8.29,1.92-16.32,4.09-24.11,6.5-38.75,11.94-71.41,29.81-97.74,53.44,13.17-24.47,29.41-46.82,48.38-66.61,11.53-12.06,24.27-23.45,37.87-33.84l5.17-3.86c.49-.37,1.01-.74,1.51-1.12,1.17-.87,2.27-1.69,3.3-2.38l10.78-7.31c6.77-4.26,13.78-8.65,20.78-12.45h.02c1.36-.47,2.72-.91,4.06-1.34h0c8.01-2.59,15.83-4.78,23.5-6.58,17.35-4.08,33.8-6.25,49.42-6.78,8.72-.3,17.18-.09,25.41.58,14.77,1.19,28.77,3.85,42.06,7.68,6.98,2.01,13.77,4.34,20.36,6.95,12.62,4.99,24.56,11.01,35.87,17.72,6.09,3.61,12,7.44,17.76,11.43,9.97,6.9,19.45,14.28,28.48,21.87.59.49,1.15.98,1.73,1.48,3.04,2.57,6.01,5.16,8.95,7.78.16.13.33.28.48.43,1.84,1.63,3.67,3.29,5.47,4.93.72.65,1.41,1.3,2.12,1.95,2.02,1.87,4.02,3.75,6,5.62l-.56-.21-.02-.02ZM580.14,620.12h-.02c-5.94,1.21-12.04,1.46-18.05.73-7.74-1.46-16.92-7.48-27.22-16.18-10.29-8.69-21.7-20.05-33.86-32.18-12.41-12.38-26.08-25.98-41.19-39.46-.34-.3-.66-.6-1-.89-5.45-4.84-11.09-9.66-16.95-14.4h0c-.13-.12-.26-.23-.4-.33-8.45-6.85-17.33-13.52-26.66-19.82-5.82-3.93-11.83-7.73-17.99-11.33-10.78-6.29-22.11-12-34.03-16.91-6.45-2.64-13.05-5.06-19.85-7.19-13.34-4.21-27.38-7.35-42.18-9.16-7.32-.89-14.83-1.46-22.52-1.66-.81-.03-1.62-.04-2.44-.05l2.88-.76,1.85-.49.13-.04c6.57-1.82,13.1-3.27,20.01-4.79l3.73-.83.08-.02.12-.03c1.62-.38,3.32-.69,5.11-1.03l12.62-2.32,1.14-.21c.57-.11,1.14-.21,1.64-.29l18.22-2.68c.59-.08,1.21-.15,1.84-.22l7.56-.85c.78-.08,1.59-.15,2.41-.23,3.12-.28,6.5-.57,10.25-.84l9.62-.52,3.1-.08h.08c8.36-.23,16.64-.2,24.78.13q5.43.22.03,0c3.38.23,6.77.55,10.17.98,6.88.86,13.74,2.11,20.6,3.74,1.22.29,2.44.59,3.66.9h0c8.14,2.1,16.24,4.73,24.26,7.9,21.12,8.31,41.65,20.22,60.78,35.45,35.87,28.56,62.64,65.63,69.89,96.72,4.61,19.83.5,33.02-12.19,39.23h-.01ZM626.15,567.96c-.75,10.97-4.71,21.37-11.22,29.98.28-6.73-.44-14.03-2.26-21.79-7.98-34.33-35.97-74.33-73.46-105.29l6.96,3.8,8.97,5.39.11.07c1.13.66,2.3,1.45,3.55,2.28.67.44,1.33.88,2,1.31l5.73,3.84,5.61,4.08c.59.43,1.18.86,1.76,1.29,1.28.93,2.49,1.82,3.57,2.7l.23.19c10.88,8.45,21.83,18.24,32.55,29.12,11.19,11.38,16.99,27.06,15.87,43.02h.03Z"/>
  </g>
  <g>
    <path class="st0" d="M440.28,262.31l5.94,6.2c4.54-4.35,8.67-8.66,12.27-12.83l-6.61-5.63c-3.34,3.97-7.27,8.1-11.6,12.26Z"/>
    <path class="st0" d="M470.88,206.02v.15l8.63-.15c0-6.21-.97-12.34-2.95-18.23l-8.17,2.77c1.67,4.98,2.51,10.21,2.5,15.46h-.01Z"/>
    <path class="st0" d="M467.73,223.01c-1.01,4.23-3.03,8.84-5.97,13.69l7.37,4.47c3.43-5.58,5.77-10.98,6.89-15.54l.34-1.11-8.16-2.81-.47,1.29h0Z"/>
    <path class="st0" d="M198.25,255.7c3.62,4.17,7.76,8.47,12.27,12.85l5.99-6.24c-4.36-4.17-8.24-8.28-11.68-12.26l-6.58,5.65Z"/>
    <path class="st0" d="M188.42,190.56l-8.16-2.78c-2.04,5.89-2.97,12.03-2.97,18.25v.14l8.62-.15c0-5.26.86-10.47,2.51-15.46h0Z"/>
    <path class="st0" d="M188.52,221.67l-7.89,3.45c1.21,5.06,3.63,10.49,7.02,16.06l7.36-4.49c-2.97-4.81-4.9-9.41-5.98-13.67l-.51-1.36h0Z"/>
    <path class="st0" d="M249.25,250.54c3.25,4.46,6.71,8.9,10.39,13.29l6.58-5.56c-3.52-4.23-6.83-8.51-9.96-12.8l-7.01,5.07Z"/>
    <path class="st0" d="M270.55,119.77l1.43,8.5c4.73-.77,9.75-.52,14.56.73l2.23-8.35c-6.03-1.64-12.25-1.93-18.21-.88h-.01Z"/>
    <path class="st0" d="M232.01,221.19c2.04,4.85,4.73,10.02,7.88,15.26l7.42-4.43c-2.97-4.92-5.38-9.67-7.23-14.17l-8.08,3.34h0Z"/>
    <path class="st0" d="M233.31,187.2l-8.73.27c.19,5.57,1.02,11.05,2.53,17.23l8.41-2.05c-1.39-5.57-2.05-10.5-2.21-15.46h0Z"/>
    <path class="st0" d="M304.99,128.7l-5.19,6.92c3.9,2.91,7.45,6.6,10.48,10.9l7.04-5.02c-3.62-5.06-7.71-9.36-12.33-12.8h0Z"/>
    <path class="st0" d="M258.34,133.54l-5.47-6.72c-4.64,3.06-8.82,6.95-12.49,11.47l6.65,5.45c3.16-3.87,6.76-7.11,11.31-10.2h0Z"/>
    <path class="st0" d="M239.06,156.85l-7.88-3.49c-2.41,5.27-4.08,10.91-5.17,16.73l8.42,1.58c1.02-5.17,2.59-10.13,4.64-14.82h-.01Z"/>
    <path class="st0" d="M339.34,141.77l7.09,4.96c2.97-4.32,6.52-8.01,10.38-10.98l-5.29-6.86c-4.54,3.49-8.65,7.82-12.19,12.88h.01Z"/>
    <path class="st0" d="M421.36,202.27l8.35,2.14c1.48-5.61,2.26-11.41,2.43-17.3l-8.65-.25c-.19,5.26-.86,10.43-2.13,15.4h0Z"/>
    <path class="st0" d="M409.51,231.61l7.41,4.44c3.06-5.24,5.75-10.38,7.8-15.27l-7.99-3.34c-1.95,4.51-4.33,9.29-7.22,14.17h0Z"/>
    <path class="st0" d="M430.73,169.73c-1.11-5.83-2.88-11.43-5.23-16.7l-7.94,3.56c2.13,4.62,3.68,9.59,4.68,14.77l8.48-1.63h0Z"/>
    <path class="st0" d="M409.59,143.52l6.67-5.51c-3.71-4.43-7.8-8.16-12.35-11.19l-1-.62-4.73,7.28.93.58c3.8,2.52,7.37,5.72,10.48,9.47h0Z"/>
    <path class="st0" d="M367.75,120.74l2.33,8.35c4.73-1.29,9.73-1.58,14.47-.85l1.39-8.53c-6.03-.96-12.24-.6-18.19,1.03Z"/>
    <path class="st0" d="M390.66,258l6.69,5.49c3.62-4.43,7.09-8.87,10.29-13.3l-7.05-5.09c-3.15,4.32-6.42,8.64-9.93,12.91h0Z"/>
    <path class="st0" d="M507.78,201.72c0-31.83-17.97-61.16-46.97-76.59-11.45-6.05-24.24-9.49-37.25-10.39-2.48-2.14-5.07-4.17-7.75-6-24.5-16.09-55.95-13.74-78.76,4.23l.02-21.76h22.17v-17.28h-22.17v-8.21c14.24-3.83,24.75-16.85,24.75-32.29,0-18.43-14.99-33.43-33.42-33.43s-33.44,15-33.44,33.43c0,15.45,10.52,28.47,24.78,32.3v8.21h-22.17v17.28h22.17v21.7c-22.81-17.92-54.15-20.29-78.71-4.17-2.63,1.71-5.04,3.65-7.41,5.7-13.94.29-27.74,3.95-39.97,10.77-27.57,15.43-44.64,44.77-44.64,76.49-.08,9.15,1.46,18.21,4.04,26.14,3.66,16.68,14.81,34.15,28.95,51h-.11c1.26,5.99,2.66,11.94,3.99,17.94,93.81-21.01,191.23-20.99,285.1,0,1.3-5.99,2.67-11.95,4-17.94-.48-.11-.93-.18-1.38-.27,14.54-16.53,25.98-33.57,29.73-49.81,2.99-8.78,4.47-17.85,4.47-27.05h-.02ZM315.03,33.42c0-7.37,5.99-13.36,13.37-13.36s13.35,5.99,13.35,13.36-5.98,13.37-13.35,13.37-13.37-6-13.37-13.37ZM201.36,275.05c-15.72-17.22-28-35.16-31.67-51.7-2.33-7.03-3.4-14.29-3.4-21.61-.03-25.5,13.74-49.01,35.78-61.4,4.71-2.62,9.77-4.63,14.96-6.06-5.33,8.66-9.23,18.33-11.55,28.7l-3.7-4.79c-5,3.86-9.3,8.29-12.95,13.17l6.91,5.12c2.51-3.45,5.66-6.52,9.01-9.38-1.12,5.81-1.74,11.77-1.74,17.85-.03,8.97,1.21,17.91,3.4,25.89,3.52,19.11,15.26,39.36,29.95,58.44-11.78,1.63-23.38,3.55-35,5.78h0ZM302.47,247.97c.02,5.78,2.07,10.97,5.29,15.28-17.14.5-34.27,1.49-51.32,3.34-16.26-19.56-29.56-40.56-33.15-59.65-2.04-7.22-2.94-14.6-2.94-22-.12-25.73,11.55-49.39,30.12-61.7,8.43-5.55,17.62-8.38,27.19-8.38,16.02,0,31.19,8.46,42.11,22.95l-.03,85.81c-10.02,3.58-17.26,13.1-17.26,24.36h-.01ZM328.4,256.64c-4.77,0-8.65-3.91-8.65-8.67-.02-4.76,3.89-8.64,8.6-8.66,4.83,0,8.71,3.9,8.71,8.66.02,4.77-3.87,8.67-8.66,8.67h0ZM349.03,263.26c3.25-4.3,5.34-9.5,5.34-15.3-.06-11.28-7.24-20.77-17.3-24.36v-85.74c17.34-23.14,46.61-29.53,69.23-14.65,18.58,12.32,30.21,35.97,30.21,61.73-.04,7.49-1,14.91-3.11,22.71-3.6,18.8-16.74,39.6-32.83,58.97-17.24-1.87-34.33-2.83-51.54-3.35h0ZM486.64,224.03c-3.7,16.13-16.45,33.79-32.7,50.74-11.15-2.12-22.21-3.93-33.38-5.47,14.53-18.93,26.16-38.94,29.66-57.76,2.3-8.6,3.56-17.52,3.56-26.6-.05-6.07-.69-12.01-1.71-17.82,3.34,2.84,6.4,5.93,8.92,9.37l6.93-5.14c-3.62-4.88-7.93-9.29-12.89-13.16l-3.71,4.78c-2.22-9.95-5.95-19.2-10.87-27.58,4.2,1.34,8.3,2.93,12.25,5.01,23.29,12.42,37.82,35.89,37.82,61.31-.06,7.29-1.21,14.52-3.87,22.32h-.01Z"/>
    <path class="st0" d="M290.96,343.71c-4.9,0-8.87,3.97-8.87,8.87s3.97,8.87,8.87,8.87,8.87-3.97,8.87-8.87-3.97-8.87-8.87-8.87Z"/>
    <path class="st0" d="M442.56,874.73s-.02-.08-.03-.12c-5.13-21.47-12.32-43.89-21.51-67.12-29.79-75.26-10.11-145.02,10.05-197.13,2.62-6.78,5.24-13.25,7.77-19.4-.92-.29-1.83-.57-2.76-.83-2.81-.83-5.72-1.59-8.73-2.28-.7-.16-1.41-.32-2.11-.47-1.37-.32-2.77-.61-4.18-.89-1.46-.29-2.94-.57-4.57-.84-1.4-.24-2.88-.49-4.83-.78l-.16-.03-.02.03c-36.78-5.45-77.16-1.9-116.72,10.59-20.07,6.33-38.96,14.75-55.64,24.57.1-.17.2-.33.3-.49l-4.84,3c-.27.17-.61.38-.95.59l-.74.45c-.43.26-.84.51-1.27.78l-3.13,2.14c-1.36.92-2.66,1.82-3.93,2.72-3.29,2.32-6.26,4.54-9.07,6.79-1.36,1.08-2.68,2.15-3.96,3.23-.13.11-.25.21-.37.32-2,1.68-3.91,3.38-5.78,5.14-2.37,2.21-4.65,4.44-6.79,6.67-2.28,2.34-4.48,4.74-6.62,7.19.99,4.26,2.03,8.54,3.16,12.86,6.55,25.24,15.44,51.43,26.68,78.79,26.28,63.95,48.53,99.97,66.4,128.91,20.61,33.36,33.04,53.5,37.34,93.87.57,5.28,1.02,10.41,1.36,15.38.03.33.05.64.08.97,1.25,18.57,1.05,35.16-.25,50.47-.34,3.99-.74,7.9-1.23,11.73-.12.91-.23,1.81-.35,2.72-.59,4.33-1.25,8.58-2,12.75,0,.03-.02.08-.02.12-.14.7-.28,1.41-.42,2.13h.03c-.36,1.97-.75,3.91-1.15,5.83-.96,4.71-2.02,9.33-3.15,13.91-.06.23-.13.45-.18.68-1.16,4.66-2.42,9.27-3.74,13.85-1.35,4.73-2.78,9.43-4.26,14.14-.61,1.93-1.22,3.86-1.83,5.8-1.52,4.72-3.09,9.46-4.67,14.25-.09.24-.16.49-.24.74-.37,1.12-.75,2.25-1.13,3.38-1.05,3.14-2.09,6.31-3.13,9.49-6.38,19.41-12.77,39.75-18.03,63.13-10.95,48.76-2.57,112.46,8.93,155.81,1.8,6.83,7.89,11.43,14.82,11.43.53,0,1.07-.03,1.6-.08,7.59-.78,13.38-6.85,13.8-14.45,2.13-38.81,8.99-110.94,31.02-157.95,5.34-11.42,10.97-23.19,16.75-35.12.05-.09.09-.19.13-.28.84-1.62,1.65-3.3,2.44-5.02,3.48-7.14,6.98-14.32,10.49-21.5.35-.7.69-1.4,1.03-2.1.47-.96.95-1.92,1.42-2.89,2.62-5.35,5.24-10.7,7.85-16,.36-.74.73-1.47,1.1-2.21.28-.59.58-1.2.88-1.79,5.28-10.77,10.39-21.16,15.17-31.01,3.49-7.16,6.8-14.02,9.91-20.53.04-.09.08-.18.13-.28,9.94-20.83,17.71-37.96,21.75-49.15,8.39-23.19,12.28-49.32,11.61-77.64-.54-21.66-3.71-44.72-9.51-68.99v.02ZM412.77,846.15c3.63,11.08,6.72,21.89,9.28,32.42h-.05c9.58,49.59-18.96,79.93-49.18,112.04-8.26,8.77-16.62,17.67-24.13,27.03.06-4.69.03-9.5-.13-14.43,4.29-39.8,19.66-65.27,34.52-89.9,12.01-19.92,24.27-40.25,29.69-67.16h0ZM345.67,937.64c-1.44-99.28,17.66-135.23,36.19-170.14,1.63-3.08,3.29-6.18,4.93-9.33,1.11,8.63,2.69,17.17,4.76,25.61,10.61,57.37-6.54,85.82-26.39,118.73-6.51,10.78-13.37,22.18-19.49,35.13ZM241.24,742.44c-.03-.07-.06-.13-.08-.19-9.67-23.53-17.26-45.48-23.09-66.06h0c1.17-6.7,2.66-13.01,4.43-19,21.8-18.93,52.75-34.8,86.97-44.27-20.02,23.24-38.52,45.87-51.43,72.35-8.98,18.41-14.54,37.19-16.8,57.18h0ZM289.64,841.11c-8.23-14.07-17.17-30.32-26.81-50.2-10.54-80.03,24.96-121.02,69.83-172.84,3.47-4.01,6.98-8.06,10.52-12.2,18.66-2.65,37.7-3.27,56.28-1.38-9.99,15.6-20.65,30.81-31.21,45.85-25.52,36.38-51.9,74.01-66.6,114.64-9.24,25.53-13.24,50.75-12.01,76.12h0ZM325.31,901.01h0v-.02c-.94-1.8-1.9-3.57-2.89-5.36h0c-35-93.61,12.58-161.45,62.96-233.26,3.88-5.53,7.77-11.09,11.66-16.68-3.07,10.82-5.77,22.16-7.85,33.99-1.48,8.41-2.58,16.69-3.29,24.85-5.53,21.19-13.77,36.74-22.5,53.17-16.5,31.05-34.66,65.25-38.08,143.31h-.01ZM302.49,1328.22c-2.12-12.62-3.78-25.9-4.71-39.25h.16c0-33.68,10.1-48.38,24.13-61.9-10.54,32.52-16.38,69.98-19.58,101.15h0ZM377.79,1106.84c-1.66,3.4-3.35,6.83-5.04,10.26-.39.8-.79,1.61-1.19,2.42-.76,1.53-1.51,3.06-2.27,4.59-2.43,4.96-4.87,9.95-7.32,14.94-.9,1.85-1.81,3.71-2.73,5.56-.18.38-.37.75-.54,1.13-2.34,4.78-4.68,9.56-6.98,14.33-.67,1.38-1.33,2.75-2,4.13-.03.06-.06.11-.08.16-9.25,18.06-21.11,28.66-32.6,38.95-5.1,4.58-10.26,9.18-15.09,14.39,3.51-15.38,7.55-29.53,11.75-43.01.02-.04.03-.08.05-.13,2.58-6.99,5.59-13.37,8.98-19.25,2.49-4.33,5.18-8.41,8.05-12.27.21-.31.43-.61.66-.91,2.22-2.96,4.54-5.8,6.93-8.53,3.27-3.72,6.67-7.26,10.21-10.68,2.28-2.22,4.61-4.38,6.98-6.51,4.35-3.92,8.86-7.74,13.42-11.56,1.93-1.61,3.87-3.22,5.84-4.84,3.55-2.94,7.13-5.91,10.69-8.93-2.53,5.17-5.11,10.44-7.72,15.77h0ZM420.77,1014.26c-.37,1.03-.79,2.14-1.23,3.3-.02.03-.03.07-.04.1-9.69,20.94-23.4,36.03-38.7,49.78-.43.39-.87.78-1.3,1.17-.4.36-.82.72-1.22,1.08-.68.6-1.36,1.2-2.04,1.78-1.87,1.62-3.74,3.22-5.64,4.82-.74.64-1.51,1.27-2.26,1.91-2.27,1.9-4.56,3.8-6.86,5.7-.46.38-.94.77-1.4,1.15-1.9,1.57-3.8,3.14-5.7,4.73-2.7,2.27-5.4,4.55-8.08,6.88-.79.68-1.56,1.37-2.36,2.07-2.89,2.54-5.75,5.14-8.57,7.84.9-3.19,1.76-6.4,2.59-9.65.18-.74.38-1.48.56-2.22,1.14-4.54,2.22-9.16,3.2-13.86.55-2.6,1.06-5.24,1.56-7.9h0c.75-4.25,1.94-8.36,3.48-12.39.03-.07.06-.13.08-.19,1.69-4.4,3.82-8.67,6.31-12.87,8.66-14.7,21.54-28.37,34.88-42.55,15.52-16.5,32.08-34.1,43.29-55.13,0,23.46-3.51,44.98-10.56,64.45h0Z"/>
    <path class="st0" d="M466.3,381.88c.33-23.6.5-36.61-7.08-46.23-.59-.75-1.22-1.46-1.89-2.13,2.33-10.52,4.7-21.07,7.06-31.61-12.71-2.84-25.41-5.24-38.21-7.29,7.14,5.45,11.22,14.03,9.56,22.99-.38,2.01-1,3.91-1.81,5.67-5.6-1.03-12.01-1.8-19.3-2.61-9.28-1.04-19.15-1.92-29.32-2.62-.53-2.38-.7-4.88-.46-7.44.79-9.09,7-16.21,15.36-19.57-19.47-2.28-39.12-3.6-58.75-4,7.85,4.46,12.98,12.34,12.55,21.45-.15,2.79-.74,5.45-1.73,7.9-16.3-.51-32.62-.59-47.9-.19-.93-2.41-1.49-4.99-1.61-7.71-.39-9.11,4.74-17.01,12.5-21.45-19.56.4-39.17,1.75-58.7,4.02,8.35,3.35,14.55,10.47,15.38,19.54.24,2.53.08,4.99-.44,7.34-13.5,1.12-25.38,2.72-35.48,4.76-4.32.87-8.31,1.83-11.98,2.87-1.42-2.4-2.46-5.08-2.99-7.99-1.67-8.94,2.39-17.5,9.55-22.97-12.8,2.02-25.49,4.47-38.18,7.29,2.54,11.63,5.21,23.23,7.78,34.82-.87.71-1.67,1.45-2.42,2.2-5.53,5.61-6.98,11.48-6.98,16.1,0,1,.08,1.96.18,2.83.31,2.48.62,5.02.94,7.6,1.68,13.78,3.6,29.42,6.86,41.65.85,3.2,2.53,9.49,5.85,15.27,1.41,2.47,3.12,4.83,5.19,6.83-.39,1.01-.79,2.02-1.17,3.04l1.59,3.91c22.37-9.11,45.8-16.57,69.52-22.3,7.85-1.9,15.73-3.61,23.62-5.12.12-.02.23-.04.35-.07l6.59-1.21c36.68-6.52,73.3-8.84,107.08-6.65,5.56.4,11.05.93,16.41,1.57.43.05.85.1,1.28.16.06-.03.13-.08.18-.12,2.93.33,5.83.71,8.7,1.14,6.26.89,12.39,1.98,18.36,3.24l3.87-18.38.44-2.08c-.14-.03-.28-.06-.42-.08.03-1.51.04-2.97.07-4.39v.02ZM269.74,391.18c-4.07,4.28-10.01,6.83-16.31,6.98-5.04.13-9.83-1.7-13.17-4.99-1.83-1.81-4.01-4.86-3.96-9.11.08-6.62,3.96-10.76,7.59-11.28,3.76-.54,5.43,3.03,6.09,5.2.75,2.48,3.38,3.87,5.86,3.12,2.48-.76,3.87-3.38,3.11-5.86-2.5-8.21-8.94-12.82-16.39-11.75-7.67,1.1-15.5,8.48-15.62,20.46-.06,5.88,2.34,11.53,6.76,15.88,1.5,1.47,3.17,2.76,4.99,3.82-5.75,1.83-11.47,3.76-17.13,5.79-1.06-2.5-2.31-6.27-3.58-11.94-1.8-7.99-3.12-17.28-4.3-26.67,6.15-10.28,18.18-17.25,31.78-17.57,15.85-.38,29.06,10.77,29.46,24.88.13,4.75-1.7,9.38-5.16,13.02l-.02.02ZM280.58,392.23c.33-.56.63-1.13.91-1.71.27.44.54.89.83,1.31-.58.13-1.16.26-1.74.39h0ZM362.34,378.78c-.03.11-.05.22-.07.33v.02c-.07.35-.14.7-.23,1.05-4.93.32-9.87.72-14.83,1.2,2.3-2.95,3.57-6.5,3.64-10.26.09-5.03-1.97-9.79-5.79-13.4-6.47-6.1-16.7-6.36-23.3-.58-3.49,3.05-4.58,8.65-2.58,13.29,1.82,4.27,5.78,6.65,10.32,6.23,2.58-.24,4.47-2.53,4.23-5.1-.23-2.58-2.52-4.47-5.09-4.23-.34.03-.57.05-.84-.6-.43-1-.21-2.22.15-2.53,2.9-2.54,7.8-2.38,10.68.34,1.88,1.77,2.89,4.05,2.85,6.41-.04,2.25-1.06,4.37-2.88,5.96-5.6,4.91-14.69,4.63-20.24-.6-3.49-3.29-5.36-7.54-5.28-11.98.08-4.28,1.99-8.27,5.4-11.25,9.75-8.54,25.54-8.08,35.18,1.01,5.99,5.65,9.21,13,9.07,20.68-.03,1.36-.15,2.69-.38,4.01h-.01ZM401.24,379.25c.84-.95,1.96-1.78,3.28-2.37,2.29-1.01,5.83-1.46,9.64,2.22.28.27.58.49.9.67-4.56-.25-9.17-.43-13.82-.52h0ZM439.71,381.92c-6.68-.81-13.51-1.45-20.43-1.89.55-.24,1.07-.59,1.51-1.05,1.8-1.87,1.74-4.83-.13-6.63-5.73-5.51-13.18-7.03-19.94-4.04-4.88,2.16-8.61,6.28-10.14,10.87-6.21.02-12.5.18-18.82.47,3.66-14.92,19.1-25.93,37.2-26.36,16.71-.39,30.66,10.77,31.07,24.88.03,1.26-.08,2.53-.33,3.76h.01ZM408.75,343.9c-15.86.37-30.09,7.54-38.68,18.48-1.98-5.6-5.36-10.75-9.98-15.11-13.07-12.32-34.5-12.88-47.79-1.25-5.41,4.74-8.46,11.17-8.59,18.13-.13,7.11,2.79,13.85,8.21,18.97.95.89,1.96,1.7,3.03,2.41-7.56,1.22-15.13,2.6-22.69,4.17-3.73-4.83-7.3-12.07-8.77-18.16-.03-.14-.08-.29-.13-.43v-.03c-3.92-15.9-19.71-27.6-38.12-27.18-12.98.32-24.83,5.59-33.16,13.92-.11-.88-.22-1.74-.33-2.59-.03-.19-.08-.59.95-1.62,3.03-3.07,17.78-13.31,80.68-16.09,36.99-1.64,82.56-.13,118.94,3.93,14.91,1.67,27.49,3.36,30.49,7.15,1.78,2.26,2.44,7.49,2.63,14.92-6.6-11.89-20.66-19.96-36.68-19.61h-.01Z"/>
  </g>
</svg>