<?xml version="1.0" encoding="UTF-8"?>
<svg id="Layer_1" xmlns="http://www.w3.org/2000/svg" version="1.1" viewBox="0 0 2975.52 518.31">
  <!-- Generator: Adobe Illustrator 29.8.3, SVG Export Plug-In . SVG Version: 2.1.1 Build 3)  -->
  <defs>
    <style>
      .st0 {
        fill: #fff;
      }
    </style>
  </defs>
  <path class="st0" d="M67.19,212.99c0-105.07,59.35-198.79,190.19-198.79,30.72,0,99.35,14.9,99.35,70.29,0,7.83-1.45,16.34-4.3,26.28,31.49,9.23,56.5-13.5,56.5-40.5,0-31.23-33.62-68.12-130.12-68.12C130.12,2.14,0,90.87,0,257c0,129.23,97.95,259.18,294.53,259.18,46.97,0,84.21-12.54,114.4-26.77v-6.57c-23.07,10.81-48.9,17-77.93,17-167.32,0-263.82-152.67-263.82-286.85h0Z"/>
  <path class="st0" d="M835.03,0C639.13,0,541.18,129.23,541.18,259.13s97.95,259.18,293.85,259.18,294.53-129.95,294.53-259.18S1031.61,0,835.03,0h0ZM871.45,501.98c-167.27,0-263.04-152.67-263.04-286.85,0-105.07,59.3-198.79,190.15-198.79,167.27,0,263.82,151.96,263.82,286.14,0,105.07-59.35,199.52-190.92,199.52h-.01Z"/>
  <path class="st0" d="M1596.39,10.69s0,4.89,2.85,5.66c5.76,2.13,12.89,14.15,12.89,36.21s-7.12,55.31-29.27,99.37l-145.19,284.73-66.57-130.43-25.77,50.55,19.1-63.67L1220.34,10.69h-72.85l253.79,496.98h12.11L1667.18,10.69h-70.79Z"/>
  <path class="st0" d="M1534.22,10.69h-12.17l-253.79,496.98h67.93s0-4.96-2.85-5.72c-6.48-2.06-13.6-14.86-13.6-36.21,0-19.17,5.7-45.41,22.15-78.01l155.88-306.09,66.64,130.37,25.77-50.49-19.1,63.54,89.69,175.4,26.42,51.77,1.49,2.96,27.13,52.48h72.21L1534.23,10.69h-.01Z"/>
  <path class="st0" d="M1870.97,212.99c0-105.07,59.3-198.79,190.15-198.79,30.72,0,99.35,14.9,99.35,70.29,0,7.83-1.4,16.34-4.26,26.28,31.44,9.23,56.45-13.5,56.45-40.5,0-31.23-33.57-68.12-130.12-68.12-148.69,0-278.81,88.73-278.81,254.86,0,129.23,97.95,259.18,294.53,259.18,47.02,0,84.21-12.54,114.4-26.72v-6.62c-23.07,10.81-48.9,17-77.93,17-167.27,0-263.77-152.67-263.77-286.85h.01Z"/>
  <path class="st0" d="M2409.29,212.99c0-105.07,59.35-198.79,190.15-198.79,30.76,0,99.4,14.9,99.4,70.29,0,7.83-1.45,16.34-4.3,26.28,31.44,9.23,56.5-13.5,56.5-40.5,0-31.23-33.62-68.12-130.12-68.12-148.74,0-278.81,88.73-278.81,254.86,0,129.23,97.9,259.18,294.53,259.18,47.02,0,84.21-12.54,114.4-26.77v-6.57c-23.07,10.77-48.9,17-77.93,17-167.32,0-263.82-152.67-263.82-286.85h0Z"/>
  <path class="st0" d="M2909.74,10.67v496.99h65.78V10.67h-65.78Z"/>
</svg>