<svg id="line" xmlns="http://www.w3.org/2000/svg" viewBox="0 0 64 64"><title>1</title><path d="M59.126,37.832c-2.0682-2.56663-5.18415-2.324-7.59163-.35153-1.13886-6.24337-7.72752-4.19965-13.0188-4.53425l.00008-7.34164c3.55969-.88275,6.11621-6.31732,6.11621-11.233,0-8.41284-6.22974-11.091-6.72022-11.28839-.7696-.547-7.47257,2.706-7.51526,11.23851-.02677,4.92068,2.54751,10.40634,6.11926,11.2845v6.1579L35.3327,30.5799c.84711-2.04853-.56946-5.38355-2.73456-7.54865-4.031-3.9767-8.44272-2.731-8.62793-1.83067-.06494.16661-1.542,4.11876,2.39893,8.05967,2.15388,2.01716,4.9879,3.59545,7.54477,2.72915l.8071.80778c-4.00354-.15363-7.06812.68286-9.10333,2.50946a7.17671,7.17671,0,0,0-2.06318,3.15778,10.76306,10.76306,0,0,0-4.61993-.71344l-5.77734.39276a3.27239,3.27239,0,0,0-3.25-3.48553H7.10889a3.25376,3.25376,0,0,0-3.25,3.25v16.46a3.25375,3.25375,0,0,0,3.25,3.25H9.90723a3.24318,3.24318,0,0,0,3.21948-2.94836l11.91772,5.19592a13.69518,13.69518,0,0,0,13.21-1.30371L58.06152,44.78076A4.87123,4.87123,0,0,0,59.126,37.832ZM32.72723,11.44672l3.7884,4.149c.00049.35349-.00036,2.59337,0,2.89106L32.40875,13.9989A12.44689,12.44689,0,0,1,32.72723,11.44672Zm5.7884,12.05365c-.0002-1.29791.00018-3.84974,0-5.15492l4.09583-4.4851C42.8463,17.86519,40.77529,22.49069,38.51563,23.50037Zm3.743-12.21912-3.743,4.09869c.00041-.05955.00181-.11935,0-.17725V5.72913A9.7,9.7,0,0,1,42.25861,11.28125Zm-5.743-5.56677v6.91546l-3.0293-3.31762A9.50453,9.50453,0,0,1,36.51563,5.71448Zm-3.7873,11.59674,3.7873,4.13861v2.05371C34.87744,22.74335,33.37268,20.23,32.72833,17.31122Zm-4.94513,10.535a6.11087,6.11087,0,0,1-2.06494-5.46533c2.97244-.78765,7.30229,2.72153,7.83721,6.42013l-4.764-4.76925a1.00008,1.00008,0,0,0-1.415,1.41313L32.145,30.21838A8.48417,8.48417,0,0,1,27.7832,27.84619Zm-.82959,8.94922c1.74219-1.564,4.55176-2.23193,8.35547-1.977,2.37431.16775,5.3299.16555,7.31885.11864,5.1676-.09258,6.46332-.10515,7.10864,3.74427l-8.09228,5.40552a4.2523,4.2523,0,0,0-3.91284-2.598H31.44287c-2.1205.11283-4.27039-1.18015-6.06726-2.15708A5.213,5.213,0,0,1,26.95361,36.79541ZM11.15723,54.36816a1.25116,1.25116,0,0,1-1.25,1.25H7.10889a1.25115,1.25115,0,0,1-1.25-1.25v-16.46a1.25116,1.25116,0,0,1,1.25-1.25H9.90723a1.25116,1.25116,0,0,1,1.25,1.25ZM58.10791,41.23193a2.8228,2.8228,0,0,1-1.189,1.90723L37.11182,56.92041a11.68452,11.68452,0,0,1-11.26807,1.1123L13.15723,52.5014V40.14807l5.91308-.402c4.50729-.50278,7.88787,4.005,12.37258,3.74261l6.28856.00007a2.24882,2.24882,0,0,1,.37637,4.46045L25.93213,50.01807a1.00178,1.00178,0,0,0,.16657,1.98582c.25964.025,12.1051-2.07622,12.34432-2.08293a4.22427,4.22427,0,0,0,3.48386-3.61755l11.82654-7.90009A2.86383,2.86383,0,0,1,58.10791,41.23193Z"/></svg>