<?xml version="1.0" encoding="UTF-8"?><svg width="512" height="512" version="1.1" viewBox="0 0 512 512" xmlns="http://www.w3.org/2000/svg" xmlns:xlink="http://www.w3.org/1999/xlink"><!--Generated by IJSVG (https://github.com/iconjar/IJSVG)--><g transform="scale(8)"><path fill="#000" d="M50.325,48.237c3.838,-4.326 6.175,-10.012 6.175,-16.237c0,-6.223 -2.336,-11.907 -6.172,-16.233c-0.001,-0.003 -0.001,-0.007 -0.003,-0.011c-0.036,-0.065 -0.086,-0.116 -0.142,-0.157c-4.487,-4.97 -10.976,-8.099 -18.183,-8.099c-7.206,0 -13.694,3.128 -18.182,8.098c-0.057,0.041 -0.107,0.093 -0.144,0.158c-0.002,0.004 -0.002,0.009 -0.004,0.013c-3.835,4.325 -6.17,10.009 -6.17,16.231c0,6.221 2.334,11.904 6.168,16.229c0.002,0.005 0.002,0.01 0.004,0.014c0.037,0.065 0.087,0.117 0.145,0.158c4.487,4.97 10.976,8.099 18.183,8.099c7.27,0 13.807,-3.186 18.297,-8.23c0.007,-0.011 0.02,-0.015 0.026,-0.026c0.001,-0.003 0.001,-0.005 0.002,-0.007Zm-41.812,-15.737h10.994c0.046,4.48 0.706,8.67 1.825,12.254c-2.634,0.646 -5.041,1.525 -7.085,2.617c-3.474,-4.007 -5.615,-9.193 -5.734,-14.871Zm5.735,-15.873c2.044,1.092 4.45,1.972 7.084,2.618c-1.12,3.584 -1.779,7.774 -1.826,12.255h-10.993c0.119,-5.679 2.261,-10.866 5.735,-14.873Zm41.239,14.873h-10.994c-0.046,-4.48 -0.705,-8.67 -1.825,-12.255c2.634,-0.646 5.039,-1.525 7.084,-2.617c3.475,4.006 5.616,9.193 5.735,14.872Zm-11.993,0h-10.994v-11.013c3.203,-0.034 6.334,-0.379 9.223,-1.012c1.083,3.496 1.725,7.612 1.771,12.025Zm-10.994,-12.013v-10.961c3.682,0.324 6.918,4.202 8.911,9.994c-2.79,0.603 -5.813,0.934 -8.911,0.967Zm-1,0c-3.099,-0.033 -6.122,-0.364 -8.911,-0.967c1.993,-5.792 5.229,-9.67 8.911,-9.994v10.961Zm0,1v11.013h-10.994c0.045,-4.413 0.688,-8.529 1.771,-12.025c2.889,0.632 6.019,0.978 9.223,1.012Zm-10.994,12.013h10.994v11.013c-3.204,0.033 -6.334,0.379 -9.224,1.012c-1.082,-3.498 -1.724,-7.613 -1.77,-12.025Zm10.994,12.012v10.962c-3.682,-0.323 -6.919,-4.202 -8.912,-9.994c2.79,-0.604 5.813,-0.935 8.912,-0.968Zm1,0.001c3.099,0.032 6.122,0.364 8.911,0.967c-1.992,5.792 -5.229,9.671 -8.911,9.994v-10.961Zm0,-1v-11.013h10.994c-0.046,4.412 -0.688,8.528 -1.771,12.024c-2.888,-0.631 -6.019,-0.978 -9.223,-1.011Zm11.993,-11.013h10.994c-0.119,5.679 -2.261,10.865 -5.735,14.872c-2.044,-1.092 -4.449,-1.972 -7.084,-2.618c1.12,-3.584 1.779,-7.774 1.825,-12.254Zm4.563,-16.641c-1.944,1.012 -4.214,1.832 -6.699,2.436c-1.497,-4.332 -3.684,-7.673 -6.246,-9.427c5.055,0.895 9.554,3.41 12.945,6.991Zm-21.166,-6.992c-2.562,1.754 -4.749,5.096 -6.246,9.427c-2.486,-0.604 -4.755,-1.424 -6.699,-2.436c3.389,-3.58 7.889,-6.095 12.945,-6.991Zm-12.947,39.273c1.945,-1.012 4.214,-1.832 6.7,-2.436c1.497,4.332 3.684,7.674 6.247,9.429c-5.056,-0.897 -9.557,-3.412 -12.947,-6.993Zm21.167,6.993c2.562,-1.755 4.749,-5.097 6.246,-9.428c2.486,0.604 4.755,1.424 6.699,2.436c-3.389,3.581 -7.889,6.095 -12.945,6.992Z"></path></g></svg>