<svg id="line" xmlns="http://www.w3.org/2000/svg" viewBox="0 0 64 64"><title>1</title><path d="M21.30225,50.64453h21.3955a1.00737,1.00737,0,0,0,.79639-1.605c-.03906-.05127-3.89307-5.18066-4.02783-9.77978a.9998.9998,0,0,0-.99951-.97071H25.5332a.9998.9998,0,0,0-.99951.97071c-.13476,4.59912-3.98877,9.72851-4.02777,9.77972A1.00736,1.00736,0,0,0,21.30225,50.64453Zm5.15918-10.35547H37.53857A21.63078,21.63078,0,0,0,40.811,48.64453H23.189A21.63078,21.63078,0,0,0,26.46143,40.28906Z"/><path d="M55.24512,17.3125A8.15531,8.15531,0,0,0,49.917,9.96729S48.24176,9.34613,46.56915,8.726l-3.24151-5.2514a3.42012,3.42012,0,0,0-.32825-.30737,2.53082,2.53082,0,0,0-.53113-.16382H21.53619a2.8136,2.8136,0,0,0-.28308.05749.91317.91317,0,0,0-.25171.10718c-.01733.01141-.29486.29071-.30316.30408,0,0-2.558,4.11523-3.26513,5.253L14.083,9.96729A8.15531,8.15531,0,0,0,8.75488,17.3125L7.5376,48.19873a.99927.99927,0,0,0,.63867.97217s.303.11712.76923.2973l-.16181,3.79352a1.0002,1.0002,0,0,0,.59424.957l6.23065,2.75867a2.53652,2.53652,0,0,0,.44318.24212V60a1,1,0,0,0,1,1H46.89014a1,1,0,0,0,1-.98584l.03961-2.79047a2.5591,2.5591,0,0,0,.387-.21319l6.3053-2.79175a1.0002,1.0002,0,0,0,.59424-.957L55.0545,49.4682l.76923-.2973a.99927.99927,0,0,0,.63867-.97217ZM35.02,12.2951l-1.27887-.90362,8.44-5.96619s.65552,1.06208,1.33966,2.17047l-.49395-.18316a.99371.99371,0,0,0-.90577.10742ZM24.7005,5.00342h14.613c-2.4441,1.72778-5.93561,4.196-7.30475,5.16394Zm-2.86407.42627,11.40771,8.05957-.50391.33887a.97473.97473,0,0,1-1.0747.00976L21.86328,7.50977a1.00057,1.00057,0,0,0-.89014-.09717l-.48016.178ZM10.75293,17.3916a6.16206,6.16206,0,0,1,4.02539-5.54931l6.4209-2.38038,6.53125,4.21637V30.979a1,1,0,0,0,2,0V14.96942l.85058.54913a2.9735,2.9735,0,0,0,3.27588-.03125l.4126-.2774V30.979a1,1,0,0,0,2,0V13.86505L42.812,9.46582l6.40967,2.37647a6.16206,6.16206,0,0,1,4.02539,5.54931l1.189,30.17188S51.189,48.8183,49.36609,49.52283c-.24225-8.96149-.70935-26.24158-.70935-26.24152a1.00006,1.00006,0,0,0-1.999.05365l.85157,31.502a.57165.57165,0,0,1-.56836.5835H17.05176a.57251.57251,0,0,1-.56885-.584L17.33447,23.335a1,1,0,0,0-1.999-.05377l-.70929,26.23859c-1.582-.61145-5.0622-1.95636-5.0622-1.95636Zm.16186,32.83765c1.35969.52545,2.865,1.10724,3.654,1.41217L14.497,54.29785,10.811,52.666ZM18.05176,59V57.42041H45.92657L45.9043,59ZM53.189,52.666,49.4953,54.30127c-.014-.51782-.03888-1.43842-.07184-2.6568l3.66175-1.41522Z"/></svg>